{"asset":{"generator":"T-FLEX CAD 17.1.6.0","version":"2.0"},"scene":0,"scenes":[{"nodes":[0]}],"cameras":[{"type":"orthographic","orthographic":{"xmag":1.9225685596466064,"ymag":1.9225685596466064,"zfar":5.400000095367432,"znear":3.5999999046325684},"extras":{"active":true}}],"nodes":[{"children":[1,5,9,13,17,21,25]},{"children":[2],"translation":[0.0,0.0,0.0],"rotation":[-2.3432605657334908e-17,0.9238795638084412,0.3826834559440613,5.657131222642009e-17],"scale":[1.0,0.9999999403953552,0.9999999403953552]},{"children":[3,4]},{"mesh":0},{"mesh":1},{"children":[6],"translation":[0.0,0.0,0.0],"rotation":[-2.3432605657334908e-17,0.9238795638084412,0.3826834559440613,5.657131222642009e-17],"scale":[1.0,0.9999999403953552,0.9999999403953552]},{"children":[7,8]},{"mesh":2},{"mesh":3},{"children":[10],"translation":[0.0,0.0,0.0],"rotation":[-2.3432605657334908e-17,0.9238795638084412,0.3826834559440613,5.657131222642009e-17],"scale":[1.0,0.9999999403953552,0.9999999403953552]},{"children":[11,12]},{"mesh":4},{"mesh":5},{"children":[14],"translation":[0.0,0.0,0.0],"rotation":[-2.3432605657334908e-17,0.9238795638084412,0.3826834559440613,5.657131222642009e-17],"scale":[1.0,0.9999999403953552,0.9999999403953552]},{"children":[15,16]},{"mesh":6},{"mesh":7},{"children":[18],"translation":[0.0,0.0,0.0],"rotation":[-2.3432605657334908e-17,0.9238795638084412,0.3826834559440613,5.657131222642009e-17],"scale":[1.0,0.9999999403953552,0.9999999403953552]},{"children":[19,20]},{"mesh":8},{"mesh":9},{"children":[22],"translation":[0.0,0.0,0.0],"rotation":[-2.3432605657334908e-17,0.9238795638084412,0.3826834559440613,5.657131222642009e-17],"scale":[1.0,0.9999999403953552,0.9999999403953552]},{"children":[23,24]},{"mesh":10},{"mesh":11},{"children":[26],"translation":[0.0,0.0,0.0],"rotation":[-2.3432605657334908e-17,0.9238795638084412,0.3826834559440613,5.657131222642009e-17],"scale":[1.0,0.9999999403953552,0.9999999403953552]},{"children":[27,28]},{"mesh":12},{"mesh":13},{"camera":0,"translation":[2.4538769721984863,3.8068625926971436,1.0448875427246094],"rotation":[0.20735837519168854,0.5825542211532593,0.7468783259391785,0.24455247819423676]}],"meshes":[{"primitives":[{"attributes":{"POSITION":1,"NORMAL":2,"TEXCOORD_0":3},"indices":0,"mode":4,"material":0}]},{"primitives":[{"attributes":{"POSITION":1},"indices":4,"mode":1,"material":1,"extras":{"flags":["BED"]}}]},{"primitives":[{"attributes":{"POSITION":6,"NORMAL":7,"TEXCOORD_0":8},"indices":5,"mode":4,"material":2}]},{"primitives":[{"attributes":{"POSITION":6},"indices":9,"mode":1,"material":1,"extras":{"flags":["BED"]}}]},{"primitives":[{"attributes":{"POSITION":11,"NORMAL":12,"TEXCOORD_0":13},"indices":10,"mode":4,"material":3}]},{"primitives":[{"attributes":{"POSITION":11},"indices":14,"mode":1,"material":1,"extras":{"flags":["BED"]}}]},{"primitives":[{"attributes":{"POSITION":16,"NORMAL":17,"TEXCOORD_0":18},"indices":15,"mode":4,"material":4}]},{"primitives":[{"attributes":{"POSITION":16},"indices":19,"mode":1,"material":1,"extras":{"flags":["BED"]}}]},{"primitives":[{"attributes":{"POSITION":21,"NORMAL":22,"TEXCOORD_0":23},"indices":20,"mode":4,"material":4}]},{"primitives":[{"attributes":{"POSITION":21},"indices":24,"mode":1,"material":1,"extras":{"flags":["BED"]}}]},{"primitives":[{"attributes":{"POSITION":26,"NORMAL":27,"TEXCOORD_0":28},"indices":25,"mode":4,"material":4}]},{"primitives":[{"attributes":{"POSITION":26},"indices":29,"mode":1,"material":1,"extras":{"flags":["BED"]}}]},{"primitives":[{"attributes":{"POSITION":31,"NORMAL":32},"indices":30,"mode":4,"material":5}]},{"primitives":[{"attributes":{"POSITION":31},"indices":33,"mode":1,"material":1,"extras":{"flags":["BED"]}}]}],"accessors":[{"bufferView":0,"byteOffset":0,"componentType":5125,"count":288,"type":"SCALAR"},{"bufferView":1,"byteOffset":0,"componentType":5126,"count":116,"type":"VEC3","min":[0.016954252496361732,0.1769542545080185,-0.01600000075995922],"max":[0.5,0.6000000238418579,4.350225559477628e-18]},{"bufferView":2,"byteOffset":0,"componentType":5126,"count":116,"type":"VEC3","min":[-1.0,-1.0,-1.0],"max":[1.0,1.0,1.0]},{"bufferView":3,"byteOffset":0,"componentType":5126,"count":116,"type":"VEC2","min":[-1.7009999752044678,-1.7009999752044678],"max":[1.7009999752044678,1.7009999752044678]},{"bufferView":4,"byteOffset":0,"componentType":5125,"count":116,"type":"SCALAR"},{"bufferView":5,"byteOffset":0,"componentType":5125,"count":288,"type":"SCALAR"},{"bufferView":6,"byteOffset":0,"componentType":5126,"count":116,"type":"VEC3","min":[-0.5,0.1769542545080185,-0.01600000075995922],"max":[-0.016954252496361732,0.6000000238418579,5.8684010093038715e-18]},{"bufferView":7,"byteOffset":0,"componentType":5126,"count":116,"type":"VEC3","min":[-1.0,-1.0,-1.0],"max":[1.0,1.0,1.0]},{"bufferView":8,"byteOffset":0,"componentType":5126,"count":116,"type":"VEC2","min":[-1.7009999752044678,-1.7009999752044678],"max":[1.7009999752044678,1.7009999752044678]},{"bufferView":9,"byteOffset":0,"componentType":5125,"count":116,"type":"SCALAR"},{"bufferView":10,"byteOffset":0,"componentType":5125,"count":36,"type":"SCALAR"},{"bufferView":11,"byteOffset":0,"componentType":5126,"count":24,"type":"VEC3","min":[-0.016954252496361732,0.1769542545080185,-0.019999999552965164],"max":[0.016954252496361732,0.6000000238418579,2.07629716337777e-18]},{"bufferView":12,"byteOffset":0,"componentType":5126,"count":24,"type":"VEC3","min":[-1.0,-1.0,-1.0],"max":[1.0,1.0,1.0]},{"bufferView":13,"byteOffset":0,"componentType":5126,"count":24,"type":"VEC2","min":[-1.7009999752044678,-1.7009999752044678],"max":[1.7009999752044678,1.7009999752044678]},{"bufferView":14,"byteOffset":0,"componentType":5125,"count":24,"type":"SCALAR"},{"bufferView":15,"byteOffset":0,"componentType":5125,"count":96,"type":"SCALAR"},{"bufferView":16,"byteOffset":0,"componentType":5126,"count":50,"type":"VEC3","min":[-0.5,0.019999999552965164,-0.04399999976158142],"max":[0.5,0.13695424795150757,-0.019999999552965164]},{"bufferView":17,"byteOffset":0,"componentType":5126,"count":50,"type":"VEC3","min":[-1.0,-1.0,-1.0],"max":[1.0,1.0,1.0]},{"bufferView":18,"byteOffset":0,"componentType":5126,"count":50,"type":"VEC2","min":[-0.38826531171798706,-1.4175000190734863],"max":[0.38826531171798706,1.4175000190734863]},{"bufferView":19,"byteOffset":0,"componentType":5125,"count":50,"type":"SCALAR"},{"bufferView":20,"byteOffset":0,"componentType":5125,"count":132,"type":"SCALAR"},{"bufferView":21,"byteOffset":0,"componentType":5126,"count":62,"type":"VEC3","min":[-0.5,-0.0,-0.10000000149011612],"max":[0.5,0.019999999552965164,9.549741276665091e-17]},{"bufferView":22,"byteOffset":0,"componentType":5126,"count":62,"type":"VEC3","min":[-1.0,-1.0,-1.0],"max":[1.0,1.0,1.0]},{"bufferView":23,"byteOffset":0,"componentType":5126,"count":62,"type":"VEC2","min":[-0.05670005455613136,-1.4175000190734863],"max":[0.2835000455379486,1.4175000190734863]},{"bufferView":24,"byteOffset":0,"componentType":5125,"count":62,"type":"SCALAR"},{"bufferView":25,"byteOffset":0,"componentType":5125,"count":36,"type":"SCALAR"},{"bufferView":26,"byteOffset":0,"componentType":5126,"count":24,"type":"VEC3","min":[-0.5,0.019999999552965164,-0.019999999552965164],"max":[0.5,0.1769542545080185,9.30731581494948e-17]},{"bufferView":27,"byteOffset":0,"componentType":5126,"count":24,"type":"VEC3","min":[-1.0,-1.0,-1.0],"max":[1.0,1.0,1.0]},{"bufferView":28,"byteOffset":0,"componentType":5126,"count":24,"type":"VEC2","min":[-0.5016653537750244,-1.4175000190734863],"max":[0.5016653537750244,1.4175000190734863]},{"bufferView":29,"byteOffset":0,"componentType":5125,"count":24,"type":"SCALAR"},{"bufferView":30,"byteOffset":0,"componentType":5125,"count":60,"type":"SCALAR"},{"bufferView":31,"byteOffset":0,"componentType":5126,"count":36,"type":"VEC3","min":[-0.5,-0.10000000149011612,-0.30000001192092896],"max":[0.5,0.6000000238418579,0.10000000149011612]},{"bufferView":32,"byteOffset":0,"componentType":5126,"count":36,"type":"VEC3","min":[-1.0,-1.0,-1.0],"max":[1.0,1.0,1.0]},{"bufferView":33,"byteOffset":0,"componentType":5125,"count":36,"type":"SCALAR"}],"bufferViews":[{"buffer":0,"byteOffset":0,"byteLength":1152,"target":34963},{"buffer":1,"byteOffset":0,"byteLength":1392,"target":34962},{"buffer":2,"byteOffset":0,"byteLength":1392,"target":34962},{"buffer":3,"byteOffset":0,"byteLength":928,"target":34962},{"buffer":4,"byteOffset":0,"byteLength":464,"target":34963},{"buffer":5,"byteOffset":0,"byteLength":1152,"target":34963},{"buffer":6,"byteOffset":0,"byteLength":1392,"target":34962},{"buffer":7,"byteOffset":0,"byteLength":1392,"target":34962},{"buffer":8,"byteOffset":0,"byteLength":928,"target":34962},{"buffer":9,"byteOffset":0,"byteLength":464,"target":34963},{"buffer":10,"byteOffset":0,"byteLength":144,"target":34963},{"buffer":11,"byteOffset":0,"byteLength":288,"target":34962},{"buffer":12,"byteOffset":0,"byteLength":288,"target":34962},{"buffer":13,"byteOffset":0,"byteLength":192,"target":34962},{"buffer":14,"byteOffset":0,"byteLength":96,"target":34963},{"buffer":15,"byteOffset":0,"byteLength":384,"target":34963},{"buffer":16,"byteOffset":0,"byteLength":600,"target":34962},{"buffer":17,"byteOffset":0,"byteLength":600,"target":34962},{"buffer":18,"byteOffset":0,"byteLength":400,"target":34962},{"buffer":19,"byteOffset":0,"byteLength":200,"target":34963},{"buffer":20,"byteOffset":0,"byteLength":528,"target":34963},{"buffer":21,"byteOffset":0,"byteLength":744,"target":34962},{"buffer":22,"byteOffset":0,"byteLength":744,"target":34962},{"buffer":23,"byteOffset":0,"byteLength":496,"target":34962},{"buffer":24,"byteOffset":0,"byteLength":248,"target":34963},{"buffer":25,"byteOffset":0,"byteLength":144,"target":34963},{"buffer":26,"byteOffset":0,"byteLength":288,"target":34962},{"buffer":27,"byteOffset":0,"byteLength":288,"target":34962},{"buffer":28,"byteOffset":0,"byteLength":192,"target":34962},{"buffer":29,"byteOffset":0,"byteLength":96,"target":34963},{"buffer":30,"byteOffset":0,"byteLength":240,"target":34963},{"buffer":31,"byteOffset":0,"byteLength":432,"target":34962},{"buffer":32,"byteOffset":0,"byteLength":432,"target":34962},{"buffer":33,"byteOffset":0,"byteLength":144,"target":34963}],"buffers":[{"byteLength":1152,"uri":"data:application/octet-stream;base64,"},{"byteLength":1392,"uri":"data:application/octet-stream;base64,"},{"byteLength":1392,"uri":"data:application/octet-stream;base64,"},{"byteLength":928,"uri":"data:application/octet-stream;base64,"},{"byteLength":464,"uri":"data:application/octet-stream;base64,"},{"byteLength":1152,"uri":"data:application/octet-stream;base64,"},{"byteLength":1392,"uri":"data:application/octet-stream;base64,"},{"byteLength":1392,"uri":"data:application/octet-stream;base64,"},{"byteLength":928,"uri":"data:application/octet-stream;base64,"},{"byteLength":464,"uri":"data:application/octet-stream;base64,"},{"byteLength":144,"uri":"data:application/octet-stream;base64,"},{"byteLength":288,"uri":"data:application/octet-stream;base64,"},{"byteLength":288,"uri":"data:application/octet-stream;base64,"},{"byteLength":192,"uri":"data:application/octet-stream;base64,"},{"byteLength":96,"uri":"data:application/octet-stream;base64,"},{"byteLength":384,"uri":"data:application/octet-stream;base64,"},{"byteLength":600,"uri":"data:application/octet-stream;base64,"},{"byteLength":600,"uri":"data:application/octet-stream;base64,"},{"byteLength":400,"uri":"data:application/octet-stream;base64,"},{"byteLength":200,"uri":"data:application/octet-stream;base64,"},{"byteLength":528,"uri":"data:application/octet-stream;base64,"},{"byteLength":744,"uri":"data:application/octet-stream;base64,"},{"byteLength":744,"uri":"data:application/octet-stream;base64,"},{"byteLength":496,"uri":"data:application/octet-stream;base64,"},{"byteLength":248,"uri":"data:application/octet-stream;base64,"},{"byteLength":144,"uri":"data:application/octet-stream;base64,"},{"byteLength":288,"uri":"data:application/octet-stream;base64,"},{"byteLength":288,"uri":"data:application/octet-stream;base64,"},{"byteLength":192,"uri":"data:application/octet-stream;base64,"},{"byteLength":96,"uri":"data:application/octet-stream;base64,"},{"byteLength":240,"uri":"data:application/octet-stream;base64,"},{"byteLength":432,"uri":"data:application/octet-stream;base64,"},{"byteLength":432,"uri":"data:application/octet-stream;base64,"},{"byteLength":144,"uri":"data:application/octet-stream;base64,"}],"materials":[{"pbrMetallicRoughness":{"baseColorFactor":[0.8117647767066956,0.7960785031318665,0.729411780834198,1.0],"roughnessFactor":1.0,"metallicFactor":0.0,"baseColorTexture":{"index":0,"texCoord":0}}},{"pbrMetallicRoughness":{"baseColorFactor":[0.0,0.0,0.0,1.0],"roughnessFactor":0.7999999970197678,"metallicFactor":0.0}},{"pbrMetallicRoughness":{"baseColorFactor":[0.8117647767066956,0.7960785031318665,0.729411780834198,1.0],"roughnessFactor":1.0,"metallicFactor":0.0,"baseColorTexture":{"index":0,"texCoord":0}}},{"pbrMetallicRoughness":{"baseColorFactor":[0.8117647767066956,0.7960785031318665,0.729411780834198,1.0],"roughnessFactor":1.0,"metallicFactor":0.0,"baseColorTexture":{"index":0,"texCoord":0}}},{"pbrMetallicRoughness":{"baseColorFactor":[0.8117647767066956,0.7960785031318665,0.729411780834198,1.0],"roughnessFactor":1.0,"metallicFactor":0.0,"baseColorTexture":{"index":0,"texCoord":0}}},{"pbrMetallicRoughness":{"baseColorFactor":[0.847058892250061,0.847058892250061,0.847058892250061,1.0],"roughnessFactor":0.7999999970197678,"metallicFactor":0.20000000298023224}}],"images":[{"uri":"data:image/png;base64,"}],"textures":[{"source":0,"sampler":0}],"samplers":[{"magFilter":9729,"minFilter":9987,"wrapS":10497,"wrapT":10497}],"extras":{"tflex":{"structure":[{"nodes":[2,6,10,14,18,22,26],"name":"3D _1","description":"","number":""}]}}}